<svg xmlns="http://www.w3.org/2000/svg" width="1042.039" height="709.089" data-name="Layer 1" viewBox="0 0 1042.039 709.089"><path fill="#3f3d56" d="M80 0h875v470.679H80z"/><path fill="#8985a8" d="M238.179 66.358h7.716v12.346h-7.716zm26.235-3.086h7.716v12.346h-7.716zm13.888 0h7.716v12.346h-7.716zm0 37.037h7.716v12.346h-7.716zm15.433-18.519h7.716v12.346h-7.716zm0 20.062h7.716v12.346h-7.716zm-15.433 38.58h7.716v12.346h-7.716zm15.433 20.062h7.716v12.346h-7.716zm-15.433 75.617h7.716v12.346h-7.716zm-13.888-75.617h7.716v12.346h-7.716zM238.179 86.42h7.716v12.346h-7.716zm0 192.901h7.716v12.346h-7.716zm0 40.123h7.716v12.346h-7.716zm0 20.062h7.716v12.346h-7.716zm-3.086-231.481h10.802v1.543h-10.802zm41.666 18.518h10.802v1.543h-10.802zm-41.666 80.247h10.802v1.543h-10.802zm0 16.975h10.802v1.543h-10.802zm41.666 98.766h10.802v1.543h-10.802zm-12.345 37.037h10.802v1.543h-10.802zM241.265 125v6.173h-3.086v3.086h7.716v-12.345h-7.716V125zm26.235-21.605v6.173h-3.086v3.086h7.716v-12.345h-7.716v3.086zm29.321 20.062v6.173h-3.086v3.086h7.716V120.37h-7.716v3.087zm0 60.185v6.173h-3.086v3.086h7.716v-12.345h-7.716v3.086zm0 20.062v6.173h-3.086v3.086h7.716v-12.346h-7.716v3.087zm0-61.729v6.173h-3.086v3.087h7.716v-12.346h-7.716v3.086zm-15.432-57.098v6.172h-3.087v3.087h7.717V81.79h-7.717v3.087zm-3.087 95.679h7.716v12.346h-7.716zm0 37.037h7.716v12.346h-7.716zm3.087-15.433v6.173h-3.087v3.087h7.717v-12.346h-7.717v3.086zM267.5 123.457v6.173h-3.086v3.086h7.716V120.37h-7.716v3.087zm0 20.062v6.172h-3.086v3.087h7.716v-12.346h-7.716v3.087zm-3.086 57.098h7.716v12.346h-7.716zm3.086-16.975v6.173h-3.086v3.086h7.716v-12.345h-7.716v3.086zm-3.086 57.099h7.716v12.346h-7.716zm3.086-16.976v6.173h-3.086v3.087h7.716v-12.346h-7.716v3.086zm-3.086 57.099h7.716v12.346h-7.716zm13.888-3.086h7.716v12.346h-7.716zM267.5 263.889v6.173h-3.086v3.086h7.716v-12.346h-7.716v3.087zm29.321 0v6.173h-3.086v3.086h7.716v-12.346h-7.716v3.087zM372.438 81.79h7.716v12.346h-7.716zm0 20.062h7.716v12.346h-7.716zm0 58.642h7.716v12.346h-7.716zm3.087-37.037v6.173h-3.087v3.086h7.716V120.37h-7.716v3.087zm0 60.185v6.173h-3.087v3.086h7.716v-12.345h-7.716v3.086zm0 20.062v6.173h-3.087v3.086h7.716v-12.346h-7.716v3.087zm0-61.729v6.173h-3.087v3.087h7.716v-12.346h-7.716v3.086zm0 121.914v6.173h-3.087v3.086h7.716v-12.346h-7.716v3.087zm-111.111 57.099h7.716v12.346h-7.716zm13.888-23.148h7.716v12.346h-7.716zm-13.888 75.617h7.716v12.346h-7.716zm13.888-37.037h7.716v12.346h-7.716zM267.5 304.012v6.173h-3.086v3.087h7.716v-12.346h-7.716v3.086zm0 94.136v6.173h-3.086v3.086h7.716v-12.345h-7.716v3.086zm81.79-334.876h7.716v12.346h-7.716zm0 97.222h7.716v12.346h-7.716zm0 199.074h10.802v1.543H349.29zm3.087-256.173v6.173h-3.087v3.086h7.716v-12.345h-7.716v3.086zm0 20.062v6.173h-3.087v3.086h7.716V120.37h-7.716v3.087zm0 20.062v6.172h-3.087v3.087h7.716v-12.346h-7.716v3.087zm-3.087 57.098h7.716v12.346h-7.716zm3.087-16.975v6.173h-3.087v3.086h7.716v-12.345h-7.716v3.086zm-3.087 57.099h7.716v12.346h-7.716zm3.087-16.976v6.173h-3.087v3.087h7.716v-12.346h-7.716v3.086zm-3.087 57.099h7.716v12.346h-7.716zm3.087-16.975v6.173h-3.087v3.086h7.716v-12.346h-7.716v3.087zm-3.087 57.099h7.716v12.346h-7.716zm0 52.469h7.716v12.346h-7.716zm3.087-69.445v6.173h-3.087v3.087h7.716v-12.346h-7.716v3.086zm0 94.136v6.173h-3.087v3.086h7.716v-12.345h-7.716v3.086zm33.95-334.876h7.716v12.346h-7.716zm0 97.222h7.716v12.346h-7.716zm0 199.074h10.802v1.543h-10.802zm3.087-256.173v6.173h-3.087v3.086h7.716v-12.345h-7.716v3.086zm0 20.062v6.173h-3.087v3.086h7.716V120.37h-7.716v3.087zm0 20.062v6.172h-3.087v3.087h7.716v-12.346h-7.716v3.087zm-3.087 57.098h7.716v12.346h-7.716zm3.087-16.975v6.173h-3.087v3.086h7.716v-12.345h-7.716v3.086zm-3.087 57.099h7.716v12.346h-7.716zm3.087-16.976v6.173h-3.087v3.087h7.716v-12.346h-7.716v3.086zm-3.087 57.099h7.716v12.346h-7.716zm3.087-16.975v6.173h-3.087v3.086h7.716v-12.346h-7.716v3.087zm-3.087 57.099h7.716v12.346h-7.716zm0 52.469h7.716v12.346h-7.716zm3.087-69.445v6.173h-3.087v3.087h7.716v-12.346h-7.716v3.086zm0 94.136v6.173h-3.087v3.086h7.716v-12.345h-7.716v3.086zm-108.025-21.605v6.173h-3.087v3.086h7.717v-12.345h-7.717v3.086zm0 20.062v6.173h-3.087v3.086h7.717v-12.345h-7.717v3.086zM241.265 163.58v6.173h-3.086v3.087h7.716v-12.346h-7.716v3.086zm0 78.704v6.173h-3.086v3.086h7.716v-12.345h-7.716v3.086zm0 20.062v6.173h-3.086v3.086h7.716v-12.346h-7.716v3.087zm0 40.123v6.173h-3.086v3.086h7.716v-12.345h-7.716v3.086zm0 57.099v6.173h-3.086v3.086h7.716v-12.346h-7.716v3.087zm0 16.975v6.173h-3.086v3.086h7.716v-12.345h-7.716v3.086zm77.161-310.185h7.716v12.346h-7.716zm0 20.062h7.716v12.346h-7.716zm-3.086 21.605h10.802v1.543H315.34zm0 98.765h10.802v1.543H315.34zm0 16.975h10.802v1.543H315.34zM321.512 125v6.173h-3.086v3.086h7.716v-12.345h-7.716V125zm0 38.58v6.173h-3.086v3.087h7.716v-12.346h-7.716v3.086zm0 78.704v6.173h-3.086v3.086h7.716v-12.345h-7.716v3.086zm84.877-41.667h7.716v12.346h-7.716zm0 20.062h7.716v12.346h-7.716zm-3.087 21.605h10.802v1.543h-10.802zm0 98.765h10.802v1.543h-10.802zm0 16.976h10.802v1.543h-10.802zm6.173-98.766v6.173h-3.086v3.087h7.716v-12.346h-7.716v3.086zm0 38.581v6.172h-3.086v3.087h7.716v-12.346h-7.716v3.087zm0 78.703v6.173h-3.086v3.086h7.716v-12.345h-7.716v3.086zM431.08 66.358h7.716v12.346h-7.716zm26.235-3.086h7.716v12.346h-7.716zm13.889 0h7.716v12.346h-7.716zm0 37.037h7.716v12.346h-7.716zm15.432-18.519h7.716v12.346h-7.716zm0 20.062h7.716v12.346h-7.716zm-15.432 38.58h7.716v12.346h-7.716zm15.432 20.062h7.716v12.346h-7.716zm-15.432 75.617h7.716v12.346h-7.716zm-13.889-75.617h7.716v12.346h-7.716zM431.08 86.42h7.716v12.346h-7.716zm0 192.901h7.716v12.346h-7.716zm0 40.123h7.716v12.346h-7.716zm0 20.062h7.716v12.346h-7.716zm-3.086-231.481h10.802v1.543h-10.802zm41.666 18.518h10.802v1.543H469.66zm-41.666 80.247h10.802v1.543h-10.802zm0 16.975h10.802v1.543h-10.802zm41.666 98.766h10.802v1.543H469.66zm-12.345 37.037h10.802v1.543h-10.802zM434.167 125v6.173h-3.087v3.086h7.716v-12.345h-7.716V125zm26.234-21.605v6.173h-3.086v3.086h7.716v-12.345h-7.716v3.086zm29.321 20.062v6.173h-3.086v3.086h7.716V120.37h-7.716v3.087zm0 60.185v6.173h-3.086v3.086h7.716v-12.345h-7.716v3.086zm0 20.062v6.173h-3.086v3.086h7.716v-12.346h-7.716v3.087zm0-61.729v6.173h-3.086v3.087h7.716v-12.346h-7.716v3.086zM474.29 84.877v6.172h-3.086v3.087h7.716V81.79h-7.716v3.087zm-3.086 95.679h7.716v12.346h-7.716zm0 37.037h7.716v12.346h-7.716zm3.086-15.433v6.173h-3.086v3.087h7.716v-12.346h-7.716v3.086zm-13.889-78.703v6.173h-3.086v3.086h7.716V120.37h-7.716v3.087zm0 20.062v6.172h-3.086v3.087h7.716v-12.346h-7.716v3.087zm-3.086 57.098h7.716v12.346h-7.716zm3.086-16.975v6.173h-3.086v3.086h7.716v-12.345h-7.716v3.086zm-3.086 57.099h7.716v12.346h-7.716zm3.086-16.976v6.173h-3.086v3.087h7.716v-12.346h-7.716v3.086zm-3.086 57.099h7.716v12.346h-7.716zm13.889-3.086h7.716v12.346h-7.716zm-10.803-13.889v6.173h-3.086v3.086h7.716v-12.346h-7.716v3.087zm29.321 0v6.173h-3.086v3.086h7.716v-12.346h-7.716v3.087zM565.339 81.79h7.716v12.346h-7.716zm0 20.062h7.716v12.346h-7.716zm0 58.642h7.716v12.346h-7.716zm3.087-37.037v6.173h-3.086v3.086h7.716V120.37h-7.716v3.087zm0 60.185v6.173h-3.086v3.086h7.716v-12.345h-7.716v3.086zm0 20.062v6.173h-3.086v3.086h7.716v-12.346h-7.716v3.087zm0-61.729v6.173h-3.086v3.087h7.716v-12.346h-7.716v3.086zm0 121.914v6.173h-3.086v3.086h7.716v-12.346h-7.716v3.087zm-111.111 57.099h7.716v12.346h-7.716zm13.889-23.148h7.716v12.346h-7.716zm-13.889 75.617h7.716v12.346h-7.716zm13.889-37.037h7.716v12.346h-7.716zm-10.803-32.408v6.173h-3.086v3.087h7.716v-12.346h-7.716v3.086zm0 94.136v6.173h-3.086v3.086h7.716v-12.345h-7.716v3.086zm81.79-334.876h7.716v12.346h-7.716zm0 97.222h7.716v12.346h-7.716zm0 199.074h10.802v1.543h-10.802zm3.087-256.173v6.173h-3.087v3.086h7.716v-12.345h-7.716v3.086zm0 20.062v6.173h-3.087v3.086h7.716V120.37h-7.716v3.087zm0 20.062v6.172h-3.087v3.087h7.716v-12.346h-7.716v3.087zm-3.087 57.098h7.716v12.346h-7.716zm3.087-16.975v6.173h-3.087v3.086h7.716v-12.345h-7.716v3.086zm-3.087 57.099h7.716v12.346h-7.716zm3.087-16.976v6.173h-3.087v3.087h7.716v-12.346h-7.716v3.086zm-3.087 57.099h7.716v12.346h-7.716zm3.087-16.975v6.173h-3.087v3.086h7.716v-12.346h-7.716v3.087zm-3.087 57.099h7.716v12.346h-7.716zm0 52.469h7.716v12.346h-7.716zm3.087-69.445v6.173h-3.087v3.087h7.716v-12.346h-7.716v3.086zm0 94.136v6.173h-3.087v3.086h7.716v-12.345h-7.716v3.086zm33.95-334.876h7.716v12.346h-7.716zm0 97.222h7.716v12.346h-7.716zm0 199.074h10.802v1.543h-10.802zm3.087-256.173v6.173h-3.087v3.086h7.716v-12.345h-7.716v3.086zm0 20.062v6.173h-3.087v3.086h7.716V120.37h-7.716v3.087zm0 20.062v6.172h-3.087v3.087h7.716v-12.346h-7.716v3.087zm-3.087 57.098h7.716v12.346h-7.716zm3.087-16.975v6.173h-3.087v3.086h7.716v-12.345h-7.716v3.086zm-3.087 57.099h7.716v12.346h-7.716zm3.087-16.976v6.173h-3.087v3.087h7.716v-12.346h-7.716v3.086zm-3.087 57.099h7.716v12.346h-7.716zm3.087-16.975v6.173h-3.087v3.086h7.716v-12.346h-7.716v3.087zm-3.087 57.099h7.716v12.346h-7.716zm0 52.469h7.716v12.346h-7.716zm3.087-69.445v6.173h-3.087v3.087h7.716v-12.346h-7.716v3.086zm0 94.136v6.173h-3.087v3.086h7.716v-12.345h-7.716v3.086zM474.29 376.543v6.173h-3.086v3.086h7.716v-12.345h-7.716v3.086zm0 20.062v6.173h-3.086v3.086h7.716v-12.345h-7.716v3.086zM434.167 163.58v6.173h-3.087v3.087h7.716v-12.346h-7.716v3.086zm0 78.704v6.173h-3.087v3.086h7.716v-12.345h-7.716v3.086zm0 20.062v6.173h-3.087v3.086h7.716v-12.346h-7.716v3.087zm0 40.123v6.173h-3.087v3.086h7.716v-12.345h-7.716v3.086zm0 57.099v6.173h-3.087v3.086h7.716v-12.346h-7.716v3.087zm0 16.975v6.173h-3.087v3.086h7.716v-12.345h-7.716v3.086zm77.16-310.185h7.716v12.346h-7.716zm0 20.062h7.716v12.346h-7.716zm-3.086 21.605h10.802v1.543h-10.802zm0 98.765h10.802v1.543h-10.802zm0 16.975h10.802v1.543h-10.802zM514.414 125v6.173h-3.087v3.086h7.716v-12.345h-7.716V125zm0 38.58v6.173h-3.087v3.087h7.716v-12.346h-7.716v3.086zm0 78.704v6.173h-3.087v3.086h7.716v-12.345h-7.716v3.086zm84.876-41.667h7.716v12.346h-7.716zm0 20.062h7.716v12.346h-7.716zm-3.086 21.605h10.802v1.543h-10.802zm0 98.765h10.802v1.543h-10.802zm0 16.976h10.802v1.543h-10.802zm6.173-98.766v6.173h-3.087v3.087h7.716v-12.346h-7.716v3.086zm0 38.581v6.172h-3.087v3.087h7.716v-12.346h-7.716v3.087zm0 78.703v6.173h-3.087v3.086h7.716v-12.345h-7.716v3.086zm21.605-310.185h7.716v12.346h-7.716zm26.234-3.086h7.716v12.346h-7.716zm13.889 0h7.716v12.346h-7.716zm0 37.037h7.716v12.346h-7.716zm15.432-18.519h7.716v12.346h-7.716zm0 20.062h7.716v12.346h-7.716zm-15.432 38.58h7.716v12.346h-7.716zm15.432 20.062h7.716v12.346h-7.716zm-15.432 75.617h7.716v12.346h-7.716zm-13.889-75.617h7.716v12.346h-7.716zM623.982 86.42h7.716v12.346h-7.716zm0 192.901h7.716v12.346h-7.716zm0 40.123h7.716v12.346h-7.716zm0 20.062h7.716v12.346h-7.716zm-3.087-231.481h10.802v1.543h-10.802zm41.667 18.518h10.802v1.543h-10.802zm-41.667 80.247h10.802v1.543h-10.802zm0 16.975h10.802v1.543h-10.802zm41.667 98.766h10.802v1.543h-10.802zm-12.346 37.037h10.802v1.543h-10.802zM627.068 125v6.173h-3.087v3.086h7.717v-12.345h-7.717V125zm26.234-21.605v6.173h-3.086v3.086h7.716v-12.345h-7.716v3.086zm29.321 20.062v6.173h-3.086v3.086h7.716V120.37h-7.716v3.087zm0 60.185v6.173h-3.086v3.086h7.716v-12.345h-7.716v3.086zm0 20.062v6.173h-3.086v3.086h7.716v-12.346h-7.716v3.087zm0-61.729v6.173h-3.086v3.087h7.716v-12.346h-7.716v3.086zm-15.432-57.098v6.172h-3.086v3.087h7.716V81.79h-7.716v3.087zm-3.086 95.679h7.716v12.346h-7.716zm0 37.037h7.716v12.346h-7.716zm3.086-15.433v6.173h-3.086v3.087h7.716v-12.346h-7.716v3.086zm-13.889-78.703v6.173h-3.086v3.086h7.716V120.37h-7.716v3.087zm0 20.062v6.172h-3.086v3.087h7.716v-12.346h-7.716v3.087zm-3.086 57.098h7.716v12.346h-7.716zm3.086-16.975v6.173h-3.086v3.086h7.716v-12.345h-7.716v3.086zm-3.086 57.099h7.716v12.346h-7.716zm3.086-16.976v6.173h-3.086v3.087h7.716v-12.346h-7.716v3.086zm-3.086 57.099h7.716v12.346h-7.716zm13.889-3.086h7.716v12.346h-7.716zm-10.803-13.889v6.173h-3.086v3.086h7.716v-12.346h-7.716v3.087zm29.321 0v6.173h-3.086v3.086h7.716v-12.346h-7.716v3.087zM758.241 81.79h7.716v12.346h-7.716zm0 20.062h7.716v12.346h-7.716zm0 58.642h7.716v12.346h-7.716zm3.086-37.037v6.173h-3.086v3.086h7.716V120.37h-7.716v3.087zm0 60.185v6.173h-3.086v3.086h7.716v-12.345h-7.716v3.086zm0 20.062v6.173h-3.086v3.086h7.716v-12.346h-7.716v3.087zm0-61.729v6.173h-3.086v3.087h7.716v-12.346h-7.716v3.086zm0 121.914v6.173h-3.086v3.086h7.716v-12.346h-7.716v3.087zm-111.111 57.099h7.716v12.346h-7.716zm13.889-23.148h7.716v12.346h-7.716zm-13.889 75.617h7.716v12.346h-7.716zm13.889-37.037h7.716v12.346h-7.716zm-10.803-32.408v6.173h-3.086v3.087h7.716v-12.346h-7.716v3.086zm0 94.136v6.173h-3.086v3.086h7.716v-12.345h-7.716v3.086zm81.791-334.876h7.716v12.346h-7.716zm0 97.222h7.716v12.346h-7.716zm0 199.074h10.802v1.543h-10.802zm3.086-256.173v6.173h-3.086v3.086h7.716v-12.345h-7.716v3.086zm0 20.062v6.173h-3.086v3.086h7.716V120.37h-7.716v3.087zm0 20.062v6.172h-3.086v3.087h7.716v-12.346h-7.716v3.087zm-3.086 57.098h7.716v12.346h-7.716zm3.086-16.975v6.173h-3.086v3.086h7.716v-12.345h-7.716v3.086zm-3.086 57.099h7.716v12.346h-7.716zm3.086-16.976v6.173h-3.086v3.087h7.716v-12.346h-7.716v3.086zm-3.086 57.099h7.716v12.346h-7.716zm3.086-16.975v6.173h-3.086v3.086h7.716v-12.346h-7.716v3.087zm-3.086 57.099h7.716v12.346h-7.716zm0 52.469h7.716v12.346h-7.716zm3.086-69.445v6.173h-3.086v3.087h7.716v-12.346h-7.716v3.086zm0 94.136v6.173h-3.086v3.086h7.716v-12.345h-7.716v3.086zM772.13 63.272h7.716v12.346h-7.716zm0 97.222h7.716v12.346h-7.716zm0 199.074h10.802v1.543H772.13zm3.086-256.173v6.173h-3.086v3.086h7.716v-12.345h-7.716v3.086zm0 20.062v6.173h-3.086v3.086h7.716V120.37h-7.716v3.087zm0 20.062v6.172h-3.086v3.087h7.716v-12.346h-7.716v3.087zm-3.086 57.098h7.716v12.346h-7.716zm3.086-16.975v6.173h-3.086v3.086h7.716v-12.345h-7.716v3.086zm-3.086 57.099h7.716v12.346h-7.716zm3.086-16.976v6.173h-3.086v3.087h7.716v-12.346h-7.716v3.086zm-3.086 57.099h7.716v12.346h-7.716zm3.086-16.975v6.173h-3.086v3.086h7.716v-12.346h-7.716v3.087zm-3.086 57.099h7.716v12.346h-7.716zm0 52.469h7.716v12.346h-7.716zm3.086-69.445v6.173h-3.086v3.087h7.716v-12.346h-7.716v3.086zm0 94.136v6.173h-3.086v3.086h7.716v-12.345h-7.716v3.086zm-108.025-21.605v6.173h-3.086v3.086h7.716v-12.345h-7.716v3.086zm0 20.062v6.173h-3.086v3.086h7.716v-12.345h-7.716v3.086zM627.068 163.58v6.173h-3.087v3.087h7.717v-12.346h-7.717v3.086zm0 78.704v6.173h-3.087v3.086h7.717v-12.345h-7.717v3.086zm0 20.062v6.173h-3.087v3.086h7.717v-12.346h-7.717v3.087zm0 40.123v6.173h-3.087v3.086h7.717v-12.345h-7.717v3.086zm0 57.099v6.173h-3.087v3.086h7.717v-12.346h-7.717v3.087zm0 16.975v6.173h-3.087v3.086h7.717v-12.345h-7.717v3.086zm77.16-310.185h7.716v12.346h-7.716zm0 20.062h7.716v12.346h-7.716zm-3.086 21.605h10.802v1.543h-10.802zm0 98.765h10.802v1.543h-10.802zm0 16.975h10.802v1.543h-10.802zM707.315 125v6.173h-3.087v3.086h7.716v-12.345h-7.716V125zm0 38.58v6.173h-3.087v3.087h7.716v-12.346h-7.716v3.086zm0 78.704v6.173h-3.087v3.086h7.716v-12.345h-7.716v3.086zm84.876-41.667h7.716v12.346h-7.716zm0 20.062h7.716v12.346h-7.716zm-3.086 21.605h10.802v1.543h-10.802zm0 98.765h10.802v1.543h-10.802zm0 16.976h10.802v1.543h-10.802zm6.173-98.766v6.173h-3.087v3.087h7.716v-12.346h-7.716v3.086zm0 38.581v6.172h-3.087v3.087h7.716v-12.346h-7.716v3.087zm0 78.703v6.173h-3.087v3.086h7.716v-12.345h-7.716v3.086z"/><path fill="#2f2e41" d="M116.435 706.534h827.604v2.554H116.435zM465.5 404.34v52l7 32s-1 20 0 26-1 16-7 16-9 15-9 15-2 6-7 7-5 0-5 0l-4 10-83 55 16 40s25-9 27-12 19 4 19-3 3-25 9-26 56-24 56-24 26-29 28-40 11-42 11-42l25 42v84l-4 45 44-6s-4-28 0-32 10-52 6-58 2-33 0-37-1-33-6-41-35-90-35-90z"/><path fill="#2f2e41" d="M550.5 679.34s-15 25-5 28 29 0 31 0 38 1 38 1 24-5 24-12-15-7-20-8-36-13-36-13zm-188.407-60.872s-28.903-3.828-27.681 6.54c1.222 10.37 11.527 26.612 12.321 28.447.539 1.243 6.855 16.978 10.876 27.006a58.5 58.5 0 0 0 12.835 19.652c3.931 3.929 8.216 7.08 11.026 5.862 6.424-2.782.462-16.547-.608-21.532-1.07-4.986-2.38-38.202-2.38-38.202z"/><path fill="#8985a8" d="m563 238.84 32-74s-3-7-10-6c0 0-9.5-24.5-27.5-24.5 0 0-27-15-35 0 0 0-17 15-16 29s2 24 2 24-16 2-13 10 4 8 0 11l-4 3s-83 75-37 185l4 17v16s101 1 101 0-2-7 2-11 4-10 4-10-4-20-2-26 3-32-1-38-2-54-2-54l9-17-3-10-3-10z"/><path d="M554.5 439.34s-12-33-11-39-2-18-2-18l-4-81s17-72-21-84c0 0-9.615 4.195-17.494 17.697-7.79 3.47-17.244 12.252-19.506 34.303-4 39 14 139 23 156s15 29 15 29l9.407-4.181.593 1.18z" opacity=".1"/><circle cx="560" cy="226.84" r="3" fill="#f2f2f2"/><path fill="#3f3d56" d="M559 226.84h2v47h-2z"/><path fill="#ffb8b8" d="m524 442.84 8 17s18-6 18-9-8-16-8-16z"/><path fill="#8985a8" d="M512.5 217.34s-23 10-27 49 14 139 23 156 15 29 15 29l27-12s-12-33-11-39-2-18-2-18l-4-81s17-72-21-84"/></svg>